<?xml version="1.0" encoding="UTF-8" standalone="no"?>
<!-- Created with Inkscape (http://www.inkscape.org/) -->

<svg
   width="200.7mm"
   height="200.7mm"
   viewBox="0 0 200.7 200.7"
   version="1.1"
   id="svg1"
   inkscape:version="1.3.2 (091e20e, 2023-11-25, custom)"
   sodipodi:docname="bell.svg"
   xmlns:inkscape="http://www.inkscape.org/namespaces/inkscape"
   xmlns:sodipodi="http://sodipodi.sourceforge.net/DTD/sodipodi-0.dtd"
   xmlns:xlink="http://www.w3.org/1999/xlink"
   xmlns="http://www.w3.org/2000/svg"
   xmlns:svg="http://www.w3.org/2000/svg">
  <sodipodi:namedview
     id="namedview1"
     pagecolor="#505050"
     bordercolor="#eeeeee"
     borderopacity="1"
     inkscape:showpageshadow="0"
     inkscape:pageopacity="0"
     inkscape:pagecheckerboard="0"
     inkscape:deskcolor="#505050"
     inkscape:document-units="mm"
     inkscape:zoom="0.75575672"
     inkscape:cx="398.27631"
     inkscape:cy="410.18491"
     inkscape:window-width="1442"
     inkscape:window-height="926"
     inkscape:window-x="644"
     inkscape:window-y="1048"
     inkscape:window-maximized="0"
     inkscape:current-layer="layer1" />
  <defs
     id="defs1">
    <linearGradient
       id="linearGradient3"
       inkscape:collect="always">
      <stop
         style="stop-color:#a89500;stop-opacity:1;"
         offset="0"
         id="stop3" />
      <stop
         style="stop-color:#000000;stop-opacity:0;"
         offset="1"
         id="stop4" />
    </linearGradient>
    <inkscape:path-effect
       effect="spiro"
       id="path-effect3"
       is_visible="true"
       lpeversion="1" />
    <inkscape:path-effect
       effect="spiro"
       id="path-effect2"
       is_visible="true"
       lpeversion="1" />
    <inkscape:path-effect
       effect="spiro"
       id="path-effect2-0"
       is_visible="true"
       lpeversion="1" />
    <inkscape:path-effect
       effect="spiro"
       id="path-effect2-0-7"
       is_visible="true"
       lpeversion="1" />
    <linearGradient
       inkscape:collect="always"
       xlink:href="#linearGradient3"
       id="linearGradient4"
       x1="109.01463"
       y1="141.50452"
       x2="142.87846"
       y2="12.017391"
       gradientUnits="userSpaceOnUse"
       gradientTransform="translate(-3.3334372e-6,-201.18131)" />
  </defs>
  <g
     inkscape:label="Layer 1"
     inkscape:groupmode="layer"
     id="layer1">
    <path
       style="fill:none;fill-opacity:1;fill-rule:evenodd;stroke:#c8a500;stroke-width:1.5;stroke-opacity:1"
       id="path1"
       sodipodi:type="arc"
       sodipodi:cx="100.31297"
       sodipodi:cy="-14.550343"
       sodipodi:rx="11.845483"
       sodipodi:ry="12.15927"
       sodipodi:start="0"
       sodipodi:end="6.2823654"
       sodipodi:arc-type="arc"
       d="M 112.15846,-14.550343 A 11.845483,12.15927 0 0 1 100.3154,-2.3910725 11.845483,12.15927 0 0 1 88.467491,-14.545358 a 11.845483,12.15927 0 0 1 11.838199,-12.164253 11.845483,12.15927 0 0 1 11.85276,12.149299"
       sodipodi:open="true"
       transform="scale(1,-1)" />
    <path
       style="fill:none;fill-rule:evenodd;stroke:#c8a500;stroke-width:1.5;stroke-opacity:1"
       d="m 105.05476,109.99206 c 0.7052,-4.38827 3.10196,-8.48273 6.58307,-11.246069 2.69366,-2.138256 5.94465,-3.461829 9.23878,-4.450068 3.29414,-0.988239 6.67519,-1.668692 9.96183,-2.681588 3.88537,-1.197418 7.64798,-2.870147 10.97177,-5.211593 5.73388,-4.039235 9.96495,-9.938788 12.94157,-16.289574 2.97662,-6.350785 4.77952,-13.179933 6.40638,-20.002403 1.62686,-6.822469 3.0997,-13.704008 5.46812,-20.305775 2.36843,-6.601768 5.68839,-12.972169 10.56791,-18.01033 3.95411,-4.082671 8.88561,-7.2122728 14.26331,-9.0517159"
       id="path2-8"
       inkscape:path-effect="#path-effect2-0"
       inkscape:original-d="m 105.05476,109.99206 c 2.19436,-3.38296 4.38871,-7.31452 6.58307,-11.246069 2.19435,-3.931555 12.8004,-4.937299 19.20061,-7.131656 6.4002,-2.194356 7.31452,-3.291533 10.97177,-5.211593 3.65726,-1.920062 23.58932,-49.647289 35.38398,-74.608082 11.79466,-24.960792 9.50888,-6.1259087 14.26331,-9.0517159"
       transform="matrix(-1.104535,0,0,-1.3519893,215.74926,175.66219)" />
    <path
       style="fill:none;fill-rule:evenodd;stroke:#c8a500;stroke-width:1.5;stroke-opacity:1"
       d="m 105.05476,109.99206 c 0.7052,-4.38827 3.10196,-8.48273 6.58307,-11.246069 2.69366,-2.138256 5.94465,-3.461829 9.23878,-4.450068 3.29414,-0.988239 6.67519,-1.668692 9.96183,-2.681588 3.88537,-1.197418 7.64798,-2.870147 10.97177,-5.211593 5.73388,-4.039235 9.96495,-9.938788 12.94157,-16.289574 2.97662,-6.350785 4.77952,-13.179933 6.40638,-20.002403 1.62686,-6.822469 3.0997,-13.704008 5.46812,-20.305775 2.36843,-6.601768 5.68839,-12.972169 10.56791,-18.01033 3.95411,-4.082671 8.88561,-7.2122728 14.26331,-9.0517159"
       id="path2-8-4"
       inkscape:path-effect="#path-effect2-0-7"
       inkscape:original-d="m 105.05476,109.99206 c 2.19436,-3.38296 4.38871,-7.31452 6.58307,-11.246069 2.19435,-3.931555 12.8004,-4.937299 19.20061,-7.131656 6.4002,-2.194356 7.31452,-3.291533 10.97177,-5.211593 3.65726,-1.920062 23.58932,-49.647289 35.38398,-74.608082 11.79466,-24.960792 9.50888,-6.1259087 14.26331,-9.0517159"
       transform="matrix(1.1045499,0,0,-1.3488162,-15.631293,175.19861)" />
    <path
       style="fill:none;fill-rule:evenodd;stroke:#c8a500;stroke-width:1.5;stroke-opacity:1"
       d="M 4.4415109,30.407268 C 35.108091,25.026022 66.23653,22.279395 97.371587,22.207555 c 32.625573,-0.07528 65.257363,2.787159 97.371583,8.541367"
       id="path2"
       inkscape:path-effect="#path-effect3"
       inkscape:original-d="M 4.4415109,30.407268 C 35.190432,27.218491 66.281011,25.054677 97.371587,22.207555 128.46216,19.360432 162.28598,27.67403 194.74317,30.748922"
       transform="matrix(1,0,0,-1,6.6665628e-6,202.54792)" />
    <path
       style="fill:url(#linearGradient4);fill-rule:evenodd;stroke:#c8a500;stroke-width:1.5;stroke-opacity:1"
       id="path3"
       sodipodi:type="arc"
       sodipodi:cx="122.4832"
       sodipodi:cy="-179.31541"
       sodipodi:rx="19.645145"
       sodipodi:ry="19.474318"
       sodipodi:start="3.2373393"
       sodipodi:end="0.026092231"
       sodipodi:open="true"
       sodipodi:arc-type="arc"
       d="m 102.92803,-181.17717 a 19.645145,19.474318 0 0 1 20.7512,-17.57644 19.645145,19.474318 0 0 1 18.44243,19.94627"
       transform="scale(1,-1)" />
    <path
       style="fill:#9c7800;fill-rule:evenodd;stroke-width:1.93694"
       d="m 96.440433,25.058975 c -1.941454,-0.687457 -4.511638,-3.063014 -5.724035,-5.290584 -0.800934,-1.471582 -1.018921,-2.350823 -1.130671,-4.560525 -0.169071,-3.343211 0.63971,-5.8265054 2.63642,-8.0948872 2.025793,-2.3014208 4.413977,-3.4449812 7.576791,-3.6280729 2.306892,-0.133544 2.866422,-0.04145 4.625422,0.7613354 5.4629,2.4931778 8.03426,8.4711697 6.10931,14.2031117 -0.8433,2.511102 -4.04966,5.781063 -6.47527,6.603712 -2.05823,0.698053 -5.655393,0.700843 -7.617967,0.0059 z"
       id="path4" />
    <path
       style="fill:#9c7800;fill-rule:evenodd;stroke-width:7.32072"
       d="M 304.74523,677.15093 C 204.93174,672.62611 130.43896,665.44125 49.351071,652.51808 l -21.027245,-3.35118 7.362973,-4.4354 c 23.204888,-13.97846 44.253578,-36.36219 59.89329,-63.69211 19.628391,-34.30001 30.232291,-68.83328 47.064451,-153.27271 10.3148,-51.74476 16.08028,-76.73843 22.42087,-97.19559 15.60449,-50.34613 39.24966,-88.80659 67.47765,-109.75699 14.9116,-11.06716 30.14088,-18.19508 60.35082,-28.2466 15.1432,-5.03849 31.48083,-11.23536 36.30583,-13.77083 22.59241,-11.87197 38.9166,-31.49874 46.67991,-56.1238 1.32058,-4.18888 2.53131,-6.3076 2.9516,-5.16518 5.6648,15.39808 7.55107,19.7826 11.11057,25.82587 13.88592,23.57533 31.32356,35.09084 73.63252,48.6256 37.0363,11.84803 53.6165,20.76255 72.71053,39.09358 17.08473,16.40202 30.87079,37.43186 42.80668,65.29908 12.76204,29.79603 20.14431,57.4197 34.16402,127.83804 17.1515,86.14875 26.7027,117.6346 46.55506,153.47045 13.79623,24.90379 35.92479,49.45093 56.09977,62.23128 5.38806,3.41321 9.79648,6.57102 9.79648,7.01737 0,1.74315 -78.57638,13.30813 -126.54674,18.62533 -77.01427,8.53652 -124.96015,11.16687 -212.41776,11.65339 -39.77183,0.22125 -76.67054,0.20471 -81.99712,-0.0367 z"
       id="path5"
       transform="scale(0.26458333)" />
    <path
       style="fill:#9c7800;fill-rule:evenodd;stroke-width:7.32072"
       d="m 399.00452,707.09359 c -2.10747,-4.32204 -3.98536,-9.84061 -4.17309,-12.2635 l -0.34132,-4.40525 9.03906,-2.47233 c 6.86155,-1.87676 17.90457,-2.89656 45.84091,-4.23332 20.24102,-0.96853 47.1398,-2.45012 59.77506,-3.2924 20.69114,-1.37931 27.85816,-1.16856 22.72971,0.66835 -0.98941,0.35439 -30.42785,8.11713 -65.41875,17.25053 l -63.61981,16.60618 z"
       id="path6"
       transform="scale(0.26458333)" />
    <path
       style="fill:#a57d05;fill-rule:evenodd;stroke-width:7.32072;fill-opacity:1"
       d="m 413.26148,727.13482 c -4.99767,-4.99767 -9.08667,-9.67156 -9.08667,-10.38642 0,-1.56167 -0.95216,-1.2916 70.83962,-20.09252 31.50456,-8.25045 57.56763,-14.71423 57.91791,-14.36394 1.21685,1.21685 -1.09772,13.11014 -3.90582,20.06977 l -2.82449,7.00025 -48.18353,12.60757 c -26.50095,6.93417 -49.86807,12.97756 -51.92695,13.42976 -3.35262,0.73636 -4.69198,-0.12638 -12.83007,-8.26447 z"
       id="path7"
       transform="scale(0.26458333)" />
    <path
       style="fill:#a6820a;fill-rule:evenodd;stroke-width:7.32072;fill-opacity:1"
       d="m 445.4962,745.68351 c -9.28372,-2.56842 -21.75755,-8.63504 -19.38261,-9.42669 5.30526,-1.76842 98.80531,-25.82211 99.12633,-25.5011 0.20818,0.20819 -2.25246,3.95244 -5.46809,8.32056 -7.22744,9.81779 -20.37238,19.65893 -32.3086,24.18829 -11.43745,4.34009 -30.95633,5.46514 -41.96703,2.41894 z"
       id="path8"
       transform="scale(0.26458333)" />
    <path
       style="fill:#8c6d00;fill-opacity:1;fill-rule:evenodd;stroke-width:1.84952"
       d="m 395.73022,701.16124 c -2.08238,-5.75093 -4.12354,-15.86528 -3.30395,-16.3718 0.22253,-0.13754 6.37715,-0.35127 13.67692,-0.47496 15.25588,-0.25851 30.68288,-0.67978 44.27823,-1.20911 5.21092,-0.20289 9.76191,-0.31131 10.1133,-0.24094 0.35139,0.0704 -4.64612,0.38726 -11.10558,0.70421 -21.43512,1.05176 -33.41063,1.95649 -39.96382,3.0192 -3.41592,0.55395 -14.33562,3.33428 -14.82813,3.77548 -0.80366,0.71995 0.75231,8.56568 2.59435,13.08157 0.13099,0.32113 0.0884,0.57091 -0.0974,0.57091 -0.18166,0 -0.79541,-1.28455 -1.36391,-2.85456 z"
       id="path9"
       transform="scale(0.26458333)" />
  </g>
</svg>
