<?xml version="1.0" encoding="UTF-8" standalone="no"?>
<svg
   xmlns:dc="http://purl.org/dc/elements/1.1/"
   xmlns:cc="http://creativecommons.org/ns#"
   xmlns:rdf="http://www.w3.org/1999/02/22-rdf-syntax-ns#"
   xmlns:svg="http://www.w3.org/2000/svg"
   xmlns="http://www.w3.org/2000/svg"
   xmlns:xlink="http://www.w3.org/1999/xlink"
   xmlns:sodipodi="http://sodipodi.sourceforge.net/DTD/sodipodi-0.dtd"
   xmlns:inkscape="http://www.inkscape.org/namespaces/inkscape"
   width="72mm"
   height="50mm"
   viewBox="-57.25 51.75 72 50"
   version="1.1"
   id="svg835"
   sodipodi:docname="retake.svg"
   inkscape:version="0.92.4 (5da689c313, 2019-01-14)">
  <metadata
     id="metadata841">
    <rdf:RDF>
      <cc:Work
         rdf:about="">
        <dc:format>image/svg+xml</dc:format>
        <dc:type
           rdf:resource="http://purl.org/dc/dcmitype/StillImage" />
        <dc:title>retake.123dx</dc:title>
      </cc:Work>
    </rdf:RDF>
  </metadata>
  <defs
     id="defs839">
    <linearGradient
       inkscape:collect="always"
       id="linearGradient4558">
      <stop
         style="stop-color:#225500;stop-opacity:1"
         offset="0"
         id="stop4554" />
      <stop
         style="stop-color:#447821;stop-opacity:1"
         offset="1"
         id="stop4556" />
    </linearGradient>
    <linearGradient
       inkscape:collect="always"
       xlink:href="#linearGradient4558"
       id="linearGradient4560"
       x1="-50.478115"
       y1="53.766972"
       x2="10.377529"
       y2="98.93364"
       gradientUnits="userSpaceOnUse"
       gradientTransform="matrix(1.1064103,0,0,1.1074053,3.1291763,-7.9576003)" />
  </defs>
  <sodipodi:namedview
     pagecolor="#ffffff"
     bordercolor="#666666"
     borderopacity="1"
     objecttolerance="10"
     gridtolerance="10"
     guidetolerance="10"
     inkscape:pageopacity="0"
     inkscape:pageshadow="2"
     inkscape:window-width="1920"
     inkscape:window-height="1027"
     id="namedview837"
     showgrid="false"
     inkscape:zoom="3.175"
     inkscape:cx="93.543307"
     inkscape:cy="135.11811"
     inkscape:window-x="-8"
     inkscape:window-y="-8"
     inkscape:window-maximized="1"
     inkscape:current-layer="svg835" />
  <title
     id="title829">retake.123dx</title>
  <desc
     id="desc831"> made with 123D Design </desc>
  <path
     d="m -37.178632,90.455585 0.0043,2.21e-4 2.164581,0.05327 0.0043,1.11e-4 h 27.6049361 0.055321 l 0.00332,-2.21e-4 1.645232,-0.123476 0.00332,-7.75e-4 1.609827,-0.367548 0.00221,-0.0012 1.5368039,-0.603425 0.00221,-0.0017 1.4294821,-0.825903 0.00332,-0.0021 1.29007434,-1.029887 0.002213,-0.0024 1.12190006,-1.210836 0.00221,-0.0028 0.9293846,-1.364766 0.00221,-0.003 0.7158475,-1.488242 0.00111,-0.0031 0.4857141,-1.578495 0.00111,-0.0032 0.2456231,-1.633423 v -0.0033 -1.651805 -0.0033 l -0.2467295,-1.633312 -0.00111,-0.0032 -0.4857141,-1.578385 -0.00221,-0.003 -0.7158474,-1.488242 -0.00111,-0.0028 -0.930491,-1.364767 -0.00221,-0.0024 -1.12189999,-1.210837 -0.003319,-0.0021 -1.29007431,-1.029887 -0.00221,-0.0017 -1.429482,-0.825903 -0.00332,-0.0012 -1.5356975,-0.603425 -0.00332,-7.75e-4 -1.6098271,-0.367548 -0.00332,-2.21e-4 -1.645232,-0.123476 H -40.47112 -40.5375 v 5.525952 0.01107 L -51.579447,62.8462 l -0.02213,-0.02215 11.041975,-11.051905 0.02213,-0.02215 v 5.525952 0.01107 h 33.125923 0.066385 l 0.00443,2.22e-4 2.3090782,0.12115 2.2825245,0.3619 0.00443,6.64e-4 2.23273592,0.598885 0.004426,0.0012 2.15860648,0.829115 0.00443,0.0017 2.0590295,1.050374 0.00443,0.0021 1.9384308,1.260116 0.00443,0.0025 1.7957038,1.456017 0.00443,0.0029 1.634168,1.63597 0.00332,0.0033 1.4549298,1.797983 0.0022,0.0037 1.259095,1.940396 0.0033,0.0039 1.048877,2.061435 0.0022,0.0042 0.828702,2.159994 0.0011,0.0043 0.598568,2.234744 0.0011,0.0045 0.361796,2.285131 v 0.0045 l 0.121705,2.31049 v 0.0047 l -0.120599,2.31049 -0.0011,0.0047 -0.36069,2.285131 -0.0011,0.0045 -0.598568,2.234855 -0.0011,0.0044 -0.828701,2.159994 -0.0011,0.0043 -1.049983,2.061546 -0.0011,0.0041 -1.259095,1.940396 -0.0033,0.0044 -1.4538235,1.798094 -0.00332,0.0033 -1.6341679,1.63597 -0.00332,0.0033 -1.7968102,1.456017 -0.00332,0.0033 -1.9384308,1.260116 -0.00443,0.0022 -2.0601359,1.050374 -0.00332,0.0022 -2.15860643,0.829114 -0.004426,0.002 -2.23273587,0.59889 -0.00443,0.001 -2.2825244,0.3619 -0.00443,6.6e-4 -2.3090782,0.12115 -0.00443,2.2e-4 h -49.6888848 -0.09958 v -22.104802 -0.0443 0.0011 l 0.02666,0.542296 0.07977,0.540968 1.1e-4,0.0011 2.22e-4,9.97e-4 0.132769,0.53842 0.185324,0.534434 3.31e-4,0.0011 0.526541,1.052035 0.0011,0.0021 0.73012,1.021249 0.0014,0.002 0.926619,0.980497 0.0019,0.002 1.114156,0.93022 0.0022,0.0019 1.291071,0.871196 0.0025,0.0017 1.455372,0.803644 0.003,0.0017 1.605733,0.72834 0.0032,0.0014 1.740716,0.64606 0.0035,0.0013 1.85888,0.557579 0.0038,0.0011 1.959121,0.463781 0.0039,8.86e-4 2.040552,0.365333 0.0041,7.75e-4 2.10229,0.263563 0.0042,5.54e-4 z"
     id="path833"
     inkscape:connector-curvature="0"
     style="fill:url(#linearGradient4560);fill-opacity:1;stroke:none;stroke-width:0.05534538mm;stroke-opacity:1" />
</svg>
